<svg width="270" height="24" viewBox="0 0 270 24" fill="none" xmlns="http://www.w3.org/2000/svg">
<path d="M7.16592 23.0286L0.528909 0.524276H7.34173L10.4185 14.3697H10.5943L14.2425 0.524276H19.6048L23.253 14.4136H23.4288L26.5055 0.524276H33.3184L26.6814 23.0286H20.8355L17.0115 10.4578H16.8357L13.0118 23.0286H7.16592ZM35.2963 23.0286V0.524276H51.5152V5.44709H41.4058V9.31501H50.6801V14.2378H41.4058V18.1058H51.4712V23.0286H35.2963ZM54.5452 23.0286V0.524276H60.6548V18.1058H69.7532V23.0286H54.5452ZM92.3564 8.96338H86.1589C86.115 8.45059 85.9978 7.98541 85.8073 7.56785C85.6242 7.15029 85.3678 6.79134 85.0381 6.49099C84.7158 6.18331 84.3239 5.94889 83.8623 5.78773C83.4008 5.61924 82.8771 5.535 82.291 5.535C81.2654 5.535 80.3973 5.78407 79.6867 6.28221C78.9835 6.78035 78.4487 7.4946 78.0824 8.42495C77.7235 9.3553 77.544 10.4725 77.544 11.7764C77.544 13.1536 77.7271 14.3074 78.0934 15.2378C78.467 16.1608 79.0055 16.8567 79.7087 17.3256C80.412 17.7871 81.2581 18.0178 82.2471 18.0178C82.8111 18.0178 83.3166 17.9483 83.7635 17.8091C84.2103 17.6626 84.5986 17.4538 84.9282 17.1827C85.2579 16.9117 85.5253 16.5857 85.7304 16.2048C85.9428 15.8165 86.0857 15.3806 86.1589 14.8971L92.3564 14.9411C92.2831 15.8934 92.0158 16.8641 91.5542 17.853C91.0927 18.8347 90.4371 19.743 89.5873 20.5781C88.7449 21.4059 87.701 22.0726 86.4556 22.578C85.2103 23.0835 83.7635 23.3362 82.1152 23.3362C80.0494 23.3362 78.196 22.893 76.555 22.0066C74.9214 21.1202 73.6285 19.8163 72.6761 18.0948C71.7311 16.3732 71.2586 14.2671 71.2586 11.7764C71.2586 9.27106 71.7421 7.16128 72.7091 5.44709C73.6761 3.72557 74.98 2.42527 76.621 1.5462C78.2619 0.6598 80.0933 0.2166 82.1152 0.2166C83.5364 0.2166 84.844 0.410729 86.0381 0.798986C87.2321 1.18724 88.2797 1.75498 89.1807 2.50219C90.0818 3.24208 90.807 4.15412 91.3565 5.23831C91.9059 6.3225 92.2392 7.56419 92.3564 8.96338ZM116.929 11.7764C116.929 14.2818 116.442 16.3952 115.468 18.1167C114.493 19.8309 113.179 21.1312 111.523 22.0176C109.867 22.8967 108.021 23.3362 105.985 23.3362C103.934 23.3362 102.08 22.893 100.425 22.0066C98.7764 21.1129 97.4651 19.809 96.4908 18.0948C95.5238 16.3732 95.0403 14.2671 95.0403 11.7764C95.0403 9.27106 95.5238 7.16128 96.4908 5.44709C97.4651 3.72557 98.7764 2.42527 100.425 1.5462C102.08 0.6598 103.934 0.2166 105.985 0.2166C108.021 0.2166 109.867 0.6598 111.523 1.5462C113.179 2.42527 114.493 3.72557 115.468 5.44709C116.442 7.16128 116.929 9.27106 116.929 11.7764ZM110.644 11.7764C110.644 10.4285 110.464 9.29304 110.105 8.37001C109.754 7.43966 109.23 6.7364 108.534 6.26023C107.845 5.77674 106.996 5.535 105.985 5.535C104.974 5.535 104.12 5.77674 103.424 6.26023C102.736 6.7364 102.212 7.43966 101.853 8.37001C101.502 9.29304 101.326 10.4285 101.326 11.7764C101.326 13.1243 101.502 14.2635 101.853 15.1938C102.212 16.1168 102.736 16.8201 103.424 17.3036C104.12 17.7798 104.974 18.0178 105.985 18.0178C106.996 18.0178 107.845 17.7798 108.534 17.3036C109.23 16.8201 109.754 16.1168 110.105 15.1938C110.464 14.2635 110.644 13.1243 110.644 11.7764ZM119.756 0.524276H127.36L132.591 13.2708H132.854L138.085 0.524276H145.689V23.0286H139.711V10.0183H139.535L134.524 22.8527H130.92L125.91 9.93037H125.734V23.0286H119.756V0.524276ZM148.584 23.0286V0.524276H164.803V5.44709H154.694V9.31501H163.968V14.2378H154.694V18.1058H164.759V23.0286H148.584ZM187.217 7.55687H184.492C184.33 6.77303 184.048 6.08442 183.645 5.49104C183.25 4.89767 182.766 4.39953 182.195 3.99662C181.631 3.58638 181.005 3.27871 180.316 3.07359C179.627 2.86847 178.909 2.76591 178.162 2.76591C176.8 2.76591 175.565 3.11022 174.459 3.79883C173.36 4.48743 172.485 5.50203 171.833 6.84262C171.188 8.18321 170.866 9.82781 170.866 11.7764C170.866 13.725 171.188 15.3696 171.833 16.7102C172.485 18.0508 173.36 19.0654 174.459 19.754C175.565 20.4426 176.8 20.7869 178.162 20.7869C178.909 20.7869 179.627 20.6844 180.316 20.4793C181.005 20.2741 181.631 19.9701 182.195 19.5672C182.766 19.157 183.25 18.6552 183.645 18.0618C184.048 17.4611 184.33 16.7725 184.492 15.996H187.217C187.012 17.1461 186.638 18.1753 186.096 19.0837C185.554 19.9921 184.88 20.7649 184.074 21.4023C183.268 22.0323 182.363 22.5121 181.36 22.8418C180.364 23.1714 179.298 23.3362 178.162 23.3362C176.243 23.3362 174.536 22.8674 173.042 21.9297C171.547 20.992 170.371 19.6588 169.514 17.9299C168.657 16.2011 168.229 14.1499 168.229 11.7764C168.229 9.40292 168.657 7.35175 169.514 5.6229C170.371 3.89406 171.547 2.5608 173.042 1.62312C174.536 0.68544 176.243 0.2166 178.162 0.2166C179.298 0.2166 180.364 0.381427 181.36 0.711079C182.363 1.04073 183.268 1.52422 184.074 2.16155C184.88 2.79155 185.554 3.56074 186.096 4.46912C186.638 5.37017 187.012 6.39942 187.217 7.55687ZM210.608 11.7764C210.608 14.1499 210.18 16.2011 209.323 17.9299C208.466 19.6588 207.29 20.992 205.795 21.9297C204.301 22.8674 202.594 23.3362 200.675 23.3362C198.755 23.3362 197.049 22.8674 195.554 21.9297C194.06 20.992 192.884 19.6588 192.027 17.9299C191.17 16.2011 190.741 14.1499 190.741 11.7764C190.741 9.40292 191.17 7.35175 192.027 5.6229C192.884 3.89406 194.06 2.5608 195.554 1.62312C197.049 0.68544 198.755 0.2166 200.675 0.2166C202.594 0.2166 204.301 0.68544 205.795 1.62312C207.29 2.5608 208.466 3.89406 209.323 5.6229C210.18 7.35175 210.608 9.40292 210.608 11.7764ZM207.971 11.7764C207.971 9.82781 207.645 8.18321 206.993 6.84262C206.348 5.50203 205.473 4.48743 204.367 3.79883C203.268 3.11022 202.037 2.76591 200.675 2.76591C199.312 2.76591 198.078 3.11022 196.972 3.79883C195.873 4.48743 194.997 5.50203 194.345 6.84262C193.701 8.18321 193.378 9.82781 193.378 11.7764C193.378 13.725 193.701 15.3696 194.345 16.7102C194.997 18.0508 195.873 19.0654 196.972 19.754C198.078 20.4426 199.312 20.7869 200.675 20.7869C202.037 20.7869 203.268 20.4426 204.367 19.754C205.473 19.0654 206.348 18.0508 206.993 16.7102C207.645 15.3696 207.971 13.725 207.971 11.7764ZM215.19 23.0286V0.524276H222.794C224.553 0.524276 225.996 0.824626 227.124 1.42533C228.252 2.0187 229.087 2.83551 229.629 3.87575C230.171 4.91598 230.442 6.09907 230.442 7.42501C230.442 8.75094 230.171 9.9267 229.629 10.9523C229.087 11.9779 228.256 12.7837 227.135 13.3697C226.014 13.9485 224.582 14.2378 222.838 14.2378H216.685V11.7764H222.751C223.952 11.7764 224.919 11.6006 225.651 11.249C226.391 10.8973 226.926 10.3992 227.256 9.75455C227.593 9.10257 227.761 8.32606 227.761 7.42501C227.761 6.52395 227.593 5.73645 227.256 5.06249C226.919 4.38854 226.38 3.86842 225.64 3.50214C224.901 3.12853 223.923 2.94173 222.707 2.94173H217.916V23.0286H215.19ZM225.783 12.9192L231.321 23.0286H228.157L222.707 12.9192H225.783ZM234.983 23.0286V0.524276H242.587C244.353 0.524276 245.796 0.84294 246.917 1.48027C248.045 2.11027 248.88 2.96371 249.422 4.04057C249.964 5.11744 250.235 6.31884 250.235 7.64477C250.235 8.97071 249.964 10.1758 249.422 11.26C248.887 12.3442 248.06 13.2086 246.939 13.8532C245.818 14.4906 244.382 14.8092 242.631 14.8092H237.181V12.3918H242.543C243.752 12.3918 244.723 12.183 245.455 11.7654C246.188 11.3479 246.719 10.7838 247.049 10.0732C247.386 9.3553 247.554 8.54582 247.554 7.64477C247.554 6.74372 247.386 5.93791 247.049 5.22732C246.719 4.51674 246.184 3.95999 245.444 3.55708C244.704 3.14685 243.723 2.94173 242.499 2.94173H237.708V23.0286H234.983ZM266.932 6.15035C266.8 5.03686 266.266 4.17243 265.328 3.55708C264.39 2.94173 263.24 2.63405 261.878 2.63405C260.881 2.63405 260.009 2.79522 259.262 3.11754C258.522 3.43987 257.944 3.88307 257.526 4.44714C257.116 5.01121 256.911 5.65221 256.911 6.37012C256.911 6.97082 257.054 7.48727 257.339 7.91948C257.632 8.34437 258.006 8.69966 258.46 8.98536C258.914 9.26373 259.39 9.49449 259.889 9.67763C260.387 9.85345 260.845 9.9963 261.262 10.1062L263.548 10.7215C264.134 10.8754 264.786 11.0878 265.504 11.3589C266.229 11.6299 266.921 11.9999 267.581 12.4687C268.247 12.9302 268.797 13.5236 269.229 14.2488C269.661 14.9741 269.877 15.8641 269.877 16.919C269.877 18.1351 269.558 19.2339 268.921 20.2155C268.291 21.1972 267.368 21.9773 266.152 22.5561C264.943 23.1348 263.475 23.4241 261.746 23.4241C260.134 23.4241 258.739 23.1641 257.559 22.644C256.387 22.1239 255.464 21.3986 254.79 20.4683C254.123 19.5379 253.746 18.4574 253.658 17.2267H256.471C256.544 18.0764 256.83 18.7797 257.328 19.3365C257.834 19.8859 258.471 20.2961 259.24 20.5672C260.017 20.8309 260.852 20.9627 261.746 20.9627C262.786 20.9627 263.72 20.7943 264.548 20.4573C265.376 20.113 266.031 19.6368 266.515 19.0288C266.998 18.4134 267.24 17.6955 267.24 16.875C267.24 16.1278 267.031 15.5198 266.614 15.051C266.196 14.5821 265.647 14.2012 264.965 13.9082C264.284 13.6151 263.548 13.3588 262.757 13.139L259.988 12.3478C258.229 11.8424 256.838 11.1208 255.812 10.1831C254.786 9.24542 254.274 8.01838 254.274 6.50198C254.274 5.24197 254.614 4.14313 255.295 3.20545C255.984 2.26045 256.907 1.52789 258.065 1.00777C259.229 0.480322 260.53 0.2166 261.965 0.2166C263.416 0.2166 264.705 0.476659 265.833 0.996778C266.962 1.50957 267.855 2.21283 268.515 3.10655C269.181 4.00028 269.533 5.01488 269.569 6.15035H266.932Z" fill="#17247E"/>
</svg>
