<svg width="125" height="23" viewBox="0 0 125 23" fill="none" xmlns="http://www.w3.org/2000/svg">
<path d="M6.58217 3.67198C6.97138 3.31617 7.47963 3.11887 8.00696 3.11887C11.8357 3.11887 14.2372 6.34016 14.2372 10.1689C14.2372 13.9976 11.1334 17.1014 7.30471 17.1014H4.96147C4.62583 17.1014 4.31445 17.2763 4.13979 17.5629L2.36178 20.4807C2.16698 20.8003 1.81969 20.9954 1.44536 20.9954C0.852664 20.9954 0.372192 20.5149 0.372192 19.9222L0.372193 9.83222L0.372192 10.3812C0.432047 9.66295 0.760828 8.99376 1.29279 8.50745L6.58217 3.67198Z" fill="#85B841"/>
<mask id="mask0_2_120" style="mask-type:alpha" maskUnits="userSpaceOnUse" x="0" y="2" width="8" height="8">
<path d="M7.44855 9.82252L0 9.72304L7.24993 2.56018L7.44855 9.82252Z" fill="#55EBC3"/>
</mask>
<g mask="url(#mask0_2_120)">
<path d="M6.58254 3.67192C6.97175 3.31611 7.48 3.1188 8.00733 3.1188C11.8361 3.1188 14.2376 6.3401 14.2376 10.1688C14.2376 13.9975 11.1338 17.1013 7.30507 17.1013H4.96184C4.6262 17.1013 4.31481 17.2762 4.14016 17.5628L2.36214 20.4806C2.16735 20.8003 1.82006 20.9953 1.44572 20.9953C0.853031 20.9953 0.372559 20.5149 0.372559 19.9222L0.372559 9.83216L0.372559 10.3811C0.432414 9.66289 0.761194 8.99369 1.29315 8.50739L6.58254 3.67192Z" fill="#ABDDE6"/>
</g>
<path d="M27.8683 9.70273C27.8683 10.2679 27.732 10.7978 27.4595 11.2924C27.1971 11.7869 26.7782 12.1856 26.2029 12.4884C25.6377 12.7912 24.9211 12.9426 24.0531 12.9426H22.2818V17H20.1622V6.43258H24.0531C24.8706 6.43258 25.5671 6.57389 26.1424 6.85649C26.7177 7.1391 27.1466 7.52768 27.4292 8.02224C27.7219 8.5168 27.8683 9.07696 27.8683 9.70273ZM23.9623 11.2318C24.5477 11.2318 24.9817 11.1006 25.2643 10.8382C25.5469 10.5657 25.6882 10.1872 25.6882 9.70273C25.6882 8.67324 25.1129 8.15849 23.9623 8.15849H22.2818V11.2318H23.9623ZM36.1557 8.61268V17H34.021V15.9402C33.7485 16.3036 33.3902 16.5912 32.9461 16.8032C32.5121 17.005 32.0377 17.106 31.5229 17.106C30.8669 17.106 30.2866 16.9697 29.7819 16.6972C29.2772 16.4146 28.8786 16.0058 28.5859 15.4709C28.3033 14.9259 28.162 14.2799 28.162 13.533V8.61268H30.2815V13.2302C30.2815 13.8964 30.448 14.4111 30.7811 14.7745C31.1142 15.1277 31.5684 15.3044 32.1437 15.3044C32.7291 15.3044 33.1883 15.1277 33.5214 14.7745C33.8544 14.4111 34.021 13.8964 34.021 13.2302V8.61268H36.1557ZM39.231 9.83899C39.5035 9.43526 39.877 9.10724 40.3513 8.85491C40.8358 8.60259 41.3859 8.47643 42.0015 8.47643C42.7181 8.47643 43.3641 8.65305 43.9394 9.00631C44.5248 9.35957 44.984 9.86422 45.3171 10.5203C45.6603 11.1662 45.8318 11.9182 45.8318 12.7761C45.8318 13.634 45.6603 14.396 45.3171 15.0621C44.984 15.7182 44.5248 16.2279 43.9394 16.5912C43.3641 16.9546 42.7181 17.1363 42.0015 17.1363C41.3758 17.1363 40.8257 17.0151 40.3513 16.7729C39.887 16.5206 39.5136 16.1976 39.231 15.804V17H37.1115V5.79672H39.231V9.83899ZM43.6669 12.7761C43.6669 12.2714 43.5609 11.8374 43.349 11.4741C43.1471 11.1006 42.8746 10.818 42.5314 10.6262C42.1984 10.4345 41.835 10.3386 41.4414 10.3386C41.0578 10.3386 40.6945 10.4395 40.3513 10.6414C40.0183 10.8332 39.7457 11.1158 39.5338 11.4892C39.3319 11.8626 39.231 12.3017 39.231 12.8063C39.231 13.311 39.3319 13.75 39.5338 14.1235C39.7457 14.4969 40.0183 14.7846 40.3513 14.9864C40.6945 15.1782 41.0578 15.2741 41.4414 15.2741C41.835 15.2741 42.1984 15.1732 42.5314 14.9713C42.8746 14.7694 43.1471 14.4818 43.349 14.1083C43.5609 13.7349 43.6669 13.2908 43.6669 12.7761ZM48.3561 5.79672V17H46.2366V5.79672H48.3561ZM50.3897 7.61347C50.0162 7.61347 49.7034 7.4974 49.451 7.26526C49.2088 7.02303 49.0877 6.72528 49.0877 6.37203C49.0877 6.01877 49.2088 5.72607 49.451 5.49393C49.7034 5.2517 50.0162 5.13058 50.3897 5.13058C50.7631 5.13058 51.071 5.2517 51.3132 5.49393C51.5655 5.72607 51.6917 6.01877 51.6917 6.37203C51.6917 6.72528 51.5655 7.02303 51.3132 7.26526C51.071 7.4974 50.7631 7.61347 50.3897 7.61347ZM51.4343 8.61268V17H49.3148V8.61268H51.4343ZM51.8479 12.7912C51.8479 11.9535 52.0195 11.2116 52.3627 10.5657C52.7159 9.90964 53.1903 9.39994 53.7858 9.03659C54.3813 8.67324 55.0373 8.49156 55.7539 8.49156C56.3494 8.49156 56.8743 8.60763 57.3285 8.83977C57.7927 9.06182 58.1662 9.34947 58.4488 9.70273V8.61268H60.5835V20.9968H58.4488V15.8494C58.1662 16.2127 57.7877 16.5155 57.3133 16.7578C56.8389 17 56.304 17.1211 55.7085 17.1211C55.002 17.1211 54.351 16.9394 53.7555 16.5761C53.1701 16.2026 52.7058 15.6879 52.3627 15.0319C52.0195 14.3758 51.8479 13.6289 51.8479 12.7912ZM58.4488 12.8063C58.4488 12.2916 58.3428 11.8475 58.1309 11.4741C57.9189 11.1006 57.6413 10.818 57.2982 10.6262C56.9651 10.4345 56.6068 10.3386 56.2233 10.3386C55.8498 10.3386 55.4915 10.4345 55.1484 10.6262C54.8153 10.818 54.5428 11.1006 54.3308 11.4741C54.1189 11.8374 54.0129 12.2765 54.0129 12.7912C54.0129 13.3059 54.1189 13.7551 54.3308 14.1386C54.5428 14.5121 54.8153 14.7947 55.1484 14.9864C55.4915 15.1782 55.8498 15.2741 56.2233 15.2741C56.6068 15.2741 56.9651 15.1782 57.2982 14.9864C57.6413 14.7947 57.9189 14.5121 58.1309 14.1386C58.3428 13.7652 58.4488 13.3211 58.4488 12.8063ZM69.4361 8.61268V17H67.3014V15.9402C67.0289 16.3036 66.6706 16.5912 66.2265 16.8032C65.7925 17.005 65.3181 17.106 64.8034 17.106C64.1473 17.106 63.567 16.9697 63.0623 16.6972C62.5577 16.4146 62.159 16.0058 61.8663 15.4709C61.5837 14.9259 61.4424 14.2799 61.4424 13.533V8.61268H63.5619V13.2302C63.5619 13.8964 63.7285 14.4111 64.0615 14.7745C64.3946 15.1277 64.8488 15.3044 65.4241 15.3044C66.0095 15.3044 66.4687 15.1277 66.8018 14.7745C67.1349 14.4111 67.3014 13.8964 67.3014 13.2302V8.61268H69.4361ZM78.1888 12.6247C78.1888 12.9275 78.1686 13.2 78.1282 13.4422H71.9967C72.0471 14.0478 72.2591 14.5222 72.6325 14.8653C73.006 15.2085 73.4652 15.3801 74.0102 15.3801C74.7975 15.3801 75.3577 15.0419 75.6907 14.3657H77.9768C77.7346 15.1732 77.2703 15.8393 76.584 16.3641C75.8976 16.8789 75.0549 17.1363 74.0557 17.1363C73.2482 17.1363 72.5215 16.9596 71.8756 16.6064C71.2397 16.243 70.7401 15.7333 70.3767 15.0773C70.0235 14.4212 69.8469 13.6642 69.8469 12.8063C69.8469 11.9383 70.0235 11.1763 70.3767 10.5203C70.73 9.86422 71.2246 9.35957 71.8604 9.00631C72.4963 8.65305 73.228 8.47643 74.0557 8.47643C74.853 8.47643 75.5646 8.64801 76.1903 8.99117C76.8262 9.33433 77.3157 9.82385 77.6589 10.4597C78.0121 11.0855 78.1888 11.8071 78.1888 12.6247ZM75.9935 12.0191C75.9834 11.4741 75.7866 11.0401 75.4031 10.7171C75.0195 10.384 74.5502 10.2175 73.9951 10.2175C73.4703 10.2175 73.0262 10.379 72.6628 10.7019C72.3096 11.0148 72.0926 11.4539 72.0118 12.0191H75.9935ZM75.6756 6.4023L72.1935 7.99196V6.478L75.6756 4.6764V6.4023ZM89.0164 8.49156C90.0459 8.49156 90.8735 8.8095 91.4993 9.44536C92.1351 10.0711 92.4531 10.9492 92.4531 12.0796V17H90.3335V12.3673C90.3335 11.7112 90.167 11.2116 89.8339 10.8685C89.5009 10.5152 89.0467 10.3386 88.4714 10.3386C87.8961 10.3386 87.4368 10.5152 87.0937 10.8685C86.7606 11.2116 86.5941 11.7112 86.5941 12.3673V17H84.4745V12.3673C84.4745 11.7112 84.308 11.2116 83.9749 10.8685C83.6418 10.5152 83.1877 10.3386 82.6124 10.3386C82.027 10.3386 81.5627 10.5152 81.2195 10.8685C80.8864 11.2116 80.7199 11.7112 80.7199 12.3673V17H78.6004V8.61268H80.7199V9.62703C80.9924 9.27378 81.3406 8.99622 81.7645 8.79436C82.1985 8.5925 82.6729 8.49156 83.1877 8.49156C83.8437 8.49156 84.4291 8.63287 84.9438 8.91547C85.4586 9.18798 85.8573 9.58161 86.1399 10.0964C86.4124 9.61189 86.806 9.22331 87.3208 8.93061C87.8456 8.63791 88.4108 8.49156 89.0164 8.49156ZM97.0532 17.1363C96.2458 17.1363 95.5191 16.9596 94.8732 16.6064C94.2272 16.243 93.7175 15.7333 93.3441 15.0773C92.9807 14.4212 92.799 13.6642 92.799 12.8063C92.799 11.9484 92.9858 11.1915 93.3592 10.5354C93.7427 9.87936 94.2625 9.37471 94.9186 9.02145C95.5746 8.6581 96.3064 8.47643 97.1138 8.47643C97.9213 8.47643 98.653 8.6581 99.309 9.02145C99.9651 9.37471 100.48 9.87936 100.853 10.5354C101.237 11.1915 101.429 11.9484 101.429 12.8063C101.429 13.6642 101.232 14.4212 100.838 15.0773C100.455 15.7333 99.9298 16.243 99.2636 16.6064C98.6076 16.9596 97.8708 17.1363 97.0532 17.1363ZM97.0532 15.2892C97.4368 15.2892 97.7951 15.1984 98.1282 15.0167C98.4713 14.8249 98.7438 14.5423 98.9457 14.1689C99.1476 13.7955 99.2485 13.3413 99.2485 12.8063C99.2485 12.009 99.0365 11.3984 98.6126 10.9745C98.1988 10.5405 97.6891 10.3235 97.0835 10.3235C96.4779 10.3235 95.9682 10.5405 95.5544 10.9745C95.1507 11.3984 94.9488 12.009 94.9488 12.8063C94.9488 13.6037 95.1457 14.2194 95.5393 14.6534C95.943 15.0773 96.4477 15.2892 97.0532 15.2892ZM105.057 17.1363C104.371 17.1363 103.755 17.0151 103.21 16.7729C102.665 16.5206 102.231 16.1825 101.908 15.7586C101.596 15.3346 101.424 14.8653 101.394 14.3506H103.528C103.569 14.6736 103.725 14.941 103.998 15.153C104.28 15.3649 104.629 15.4709 105.042 15.4709C105.446 15.4709 105.759 15.3902 105.981 15.2287C106.213 15.0672 106.329 14.8603 106.329 14.6079C106.329 14.3354 106.188 14.1336 105.905 14.0024C105.633 13.8611 105.194 13.7097 104.588 13.5482C103.962 13.3968 103.448 13.2403 103.044 13.0789C102.65 12.9174 102.307 12.6701 102.014 12.337C101.732 12.0039 101.591 11.5548 101.591 10.9896C101.591 10.5253 101.722 10.1014 101.984 9.71787C102.257 9.33433 102.64 9.03154 103.135 8.8095C103.639 8.58745 104.23 8.47643 104.906 8.47643C105.905 8.47643 106.703 8.72875 107.298 9.2334C107.894 9.72796 108.222 10.3991 108.282 11.247H106.253C106.223 10.9139 106.082 10.6515 105.83 10.4597C105.587 10.2578 105.259 10.1569 104.846 10.1569C104.462 10.1569 104.164 10.2276 103.952 10.3689C103.75 10.5102 103.649 10.707 103.649 10.9593C103.649 11.2419 103.791 11.4589 104.073 11.6103C104.356 11.7516 104.795 11.898 105.391 12.0494C105.996 12.2008 106.496 12.3572 106.889 12.5187C107.283 12.6802 107.621 12.9325 107.904 13.2757C108.196 13.6087 108.348 14.0528 108.358 14.6079C108.358 15.0924 108.222 15.5264 107.949 15.91C107.687 16.2935 107.303 16.5963 106.799 16.8183C106.304 17.0303 105.724 17.1363 105.057 17.1363ZM111.082 5.79672V17H108.962V5.79672H111.082ZM115.765 17.1363C114.957 17.1363 114.231 16.9596 113.585 16.6064C112.939 16.243 112.429 15.7333 112.056 15.0773C111.692 14.4212 111.511 13.6642 111.511 12.8063C111.511 11.9484 111.697 11.1915 112.071 10.5354C112.454 9.87936 112.974 9.37471 113.63 9.02145C114.286 8.6581 115.018 8.47643 115.825 8.47643C116.633 8.47643 117.365 8.6581 118.021 9.02145C118.677 9.37471 119.191 9.87936 119.565 10.5354C119.948 11.1915 120.14 11.9484 120.14 12.8063C120.14 13.6642 119.943 14.4212 119.55 15.0773C119.166 15.7333 118.641 16.243 117.975 16.6064C117.319 16.9596 116.582 17.1363 115.765 17.1363ZM115.765 15.2892C116.148 15.2892 116.507 15.1984 116.84 15.0167C117.183 14.8249 117.455 14.5423 117.657 14.1689C117.859 13.7955 117.96 13.3413 117.96 12.8063C117.96 12.009 117.748 11.3984 117.324 10.9745C116.91 10.5405 116.401 10.3235 115.795 10.3235C115.19 10.3235 114.68 10.5405 114.266 10.9745C113.862 11.3984 113.66 12.009 113.66 12.8063C113.66 13.6037 113.857 14.2194 114.251 14.6534C114.655 15.0773 115.159 15.2892 115.765 15.2892ZM121.498 17.106C121.115 17.106 120.797 16.9899 120.544 16.7578C120.302 16.5155 120.181 16.2178 120.181 15.8645C120.181 15.5113 120.302 15.2186 120.544 14.9864C120.797 14.7442 121.115 14.6231 121.498 14.6231C121.872 14.6231 122.179 14.7442 122.422 14.9864C122.664 15.2186 122.785 15.5113 122.785 15.8645C122.785 16.2178 122.664 16.5155 122.422 16.7578C122.179 16.9899 121.872 17.106 121.498 17.106Z" fill="white"/>
<a href="https://www.figma.com/file/lcDjqNhVlOOXKpyBTVkOKH/Bismillah-Logo-Publiquemoslo-Update?node-id=2%3A2">
<rect fill="black" fill-opacity="0" y="0.145328" width="104.333" height="22.7093"/>
</a>
</svg>
