<svg width="14" height="22" viewBox="0 0 14 22" fill="none" xmlns="http://www.w3.org/2000/svg">
<path d="M6.582 3.672c.39-.356.898-.553 1.425-.553 3.829 0 6.23 3.221 6.23 7.05A6.933 6.933 0 0 1 7.305 17.1H4.96a.962.962 0 0 0-.821.462L2.362 20.48a1.073 1.073 0 0 1-1.99-.559V9.832v.55a2.86 2.86 0 0 1 .92-1.875l5.29-4.835Z" fill="#85B841"></path>
<mask id="a" style="mask-type:alpha" maskUnits="userSpaceOnUse" x="0" y="2" width="8" height="8"><path d="M7.449 9.823 0 9.723 7.25 2.56l.199 7.263Z" fill="#55EBC3"></path></mask>
<g mask="url(#a)"><path d="M6.583 3.672c.389-.356.897-.553 1.424-.553 3.83 0 6.23 3.221 6.23 7.05A6.933 6.933 0 0 1 7.306 17.1H4.962a.962.962 0 0 0-.822.462L2.362 20.48a1.073 1.073 0 0 1-1.99-.559V9.832v.55a2.86 2.86 0 0 1 .921-1.875l5.29-4.835Z" fill="#ABDDE6"></path></g>
</svg>
