<svg width="590" height="644" viewBox="0 0 590 644" fill="none" xmlns="http://www.w3.org/2000/svg">
<path opacity="0.2" d="M362.818 -106.664C385.557 -127.465 415.251 -139 446.061 -139C669.755 -139 810.063 49.325 810.063 273.162C810.063 496.999 628.726 678.455 405.032 678.455H268.128C248.519 678.455 230.326 688.679 220.122 705.436L116.241 876.016C104.86 894.704 84.5702 906.108 62.6996 906.108C28.0715 906.108 9.44956e-07 878.018 2.11062e-06 843.368L2.19548e-05 253.48L0 285.575C3.49701 243.584 22.706 204.461 53.7857 176.03L362.818 -106.664Z" fill="#05323A"/>
<path opacity="0.3" d="M370.035 -23.9764C388.887 -41.2691 413.504 -50.8584 439.045 -50.8584C624.491 -50.8584 740.809 105.701 740.809 291.782C740.809 477.864 590.477 628.712 405.031 628.712H291.536C275.28 628.712 260.198 637.212 251.738 651.142L165.62 792.95C156.185 808.486 139.364 817.966 121.233 817.966C92.5257 817.966 69.2539 794.614 69.2539 765.809L69.2539 275.42L69.2539 302.102C72.153 267.193 88.0775 234.67 113.843 211.034L370.035 -23.9764Z" fill="#05323A"/>
<path opacity="0.3" d="M337.534 74.4608C351.849 61.3451 370.543 54.0721 389.938 54.0721C530.761 54.0721 619.09 172.815 619.09 313.949C619.09 455.083 504.932 569.495 364.109 569.495H277.924C265.579 569.495 254.126 575.942 247.702 586.507L182.306 694.062C175.141 705.845 162.368 713.036 148.599 713.036C126.8 713.036 109.128 695.324 109.128 673.477L109.128 301.539L109.128 321.776C111.329 295.3 123.422 270.632 142.988 252.706L337.534 74.4608Z" fill="#05323A"/>
</svg>
