<svg width="729" height="644" viewBox="0 0 729 644" fill="none" xmlns="http://www.w3.org/2000/svg">
<path opacity="0.2" d="M326.38 -89.4304C346.835 -108.143 373.547 -118.519 401.262 -118.519C602.49 -118.519 728.708 50.8922 728.708 252.249C728.708 453.606 565.582 616.837 364.354 616.837H241.2C223.56 616.837 207.194 626.035 198.014 641.109L104.567 794.557C94.3291 811.369 76.0767 821.627 56.4026 821.627C25.2523 821.627 8.50053e-07 796.359 1.89864e-06 765.188L1.97499e-05 234.544L0 263.415C3.1458 225.641 20.4256 190.448 48.3839 164.872L326.38 -89.4304Z" fill="#05323A"/>
<path opacity="0.3" d="M332.872 -15.0476C349.83 -30.6035 371.975 -39.2297 394.951 -39.2297C561.772 -39.2297 666.408 101.606 666.408 268.999C666.408 436.392 531.174 572.091 364.353 572.091H262.257C247.632 572.091 234.065 579.737 226.455 592.268L148.986 719.834C140.498 733.81 125.367 742.338 109.057 742.338C83.2326 742.338 62.2981 721.331 62.2981 695.418L62.2981 254.28L62.2981 278.282C64.906 246.88 79.2312 217.622 102.409 196.361L332.872 -15.0476Z" fill="#05323A"/>
<path opacity="0.3" d="M303.636 73.5035C316.514 61.7051 333.33 55.1625 350.777 55.1625C477.457 55.1625 556.915 161.98 556.915 288.94C556.915 415.9 454.222 518.821 327.542 518.821H250.013C238.907 518.821 228.605 524.62 222.826 534.125L163.998 630.877C157.553 641.477 146.062 647.945 133.677 647.945C114.066 647.945 98.1692 632.013 98.1692 612.359L98.1692 277.776L98.1692 295.981C100.15 272.163 111.028 249.973 128.629 233.847L303.636 73.5035Z" fill="#05323A"/>
</svg>
