<svg width="25" height="25" viewBox="0 0 25 25" fill="none" xmlns="http://www.w3.org/2000/svg">
<path d="M22.8499 4.0079C22.752 3.99737 22.6532 3.99737 22.5553 4.0079H2.43025C2.30127 4.00997 2.17314 4.03014 2.04932 4.06787L12.4353 14.8555L22.8499 4.0079Z" fill="white"/>
<path d="M23.9138 5.05029L13.4487 15.9204C13.1794 16.1996 12.8151 16.3564 12.4353 16.3564C12.0555 16.3564 11.6912 16.1996 11.4219 15.9204L1.05031 5.13276C1.01843 5.25498 1.00152 5.38093 1 5.50759V20.5008C1 20.8985 1.15145 21.2798 1.42103 21.561C1.69062 21.8422 2.05625 22.0001 2.4375 22.0001H22.5625C22.9437 22.0001 23.3094 21.8422 23.579 21.561C23.8486 21.2798 24 20.8985 24 20.5008V5.50759C23.9943 5.3514 23.9652 5.1971 23.9138 5.05029V5.05029ZM3.42219 20.5008H2.42313V19.4288L7.64844 14.0237L8.66187 15.0808L3.42219 20.5008ZM22.5481 20.5008H21.5419L16.3022 15.0808L17.3156 14.0237L22.5409 19.4288L22.5481 20.5008Z" fill="white"/>
</svg>
