<svg width="25" height="25" viewBox="0 0 25 25" fill="none" xmlns="http://www.w3.org/2000/svg">
<path d="M12.6205 9.4139C10.8535 9.4139 9.41149 10.8559 9.41149 12.6229C9.41149 14.3899 10.8535 15.8319 12.6205 15.8319C14.3875 15.8319 15.8295 14.3899 15.8295 12.6229C15.8295 10.8559 14.3875 9.4139 12.6205 9.4139ZM22.2451 12.6229C22.2451 11.294 22.2571 9.97722 22.1825 8.65077C22.1079 7.11007 21.7564 5.74269 20.6298 4.61605C19.5007 3.487 18.1357 3.13794 16.595 3.06331C15.2662 2.98868 13.9494 3.00072 12.6229 3.00072C11.294 3.00072 9.97722 2.98868 8.65077 3.06331C7.11007 3.13794 5.74269 3.48941 4.61605 4.61605C3.487 5.7451 3.13794 7.11007 3.06331 8.65077C2.98868 9.97963 3.00072 11.2965 3.00072 12.6229C3.00072 13.9494 2.98868 15.2686 3.06331 16.595C3.13794 18.1357 3.48941 19.5031 4.61605 20.6298C5.7451 21.7588 7.11007 22.1079 8.65077 22.1825C9.97963 22.2571 11.2965 22.2451 12.6229 22.2451C13.9518 22.2451 15.2686 22.2571 16.595 22.1825C18.1357 22.1079 19.5031 21.7564 20.6298 20.6298C21.7588 19.5007 22.1079 18.1357 22.1825 16.595C22.2595 15.2686 22.2451 13.9518 22.2451 12.6229ZM12.6205 17.5604C9.88815 17.5604 7.68302 15.3553 7.68302 12.6229C7.68302 9.89056 9.88815 7.68542 12.6205 7.68542C15.3528 7.68542 17.558 9.89056 17.558 12.6229C17.558 15.3553 15.3528 17.5604 12.6205 17.5604ZM17.7602 8.63633C17.1222 8.63633 16.6071 8.12116 16.6071 7.48321C16.6071 6.84526 17.1222 6.33009 17.7602 6.33009C18.3981 6.33009 18.9133 6.84526 18.9133 7.48321C18.9135 7.63469 18.8838 7.78472 18.8259 7.92471C18.768 8.0647 18.6831 8.1919 18.576 8.29901C18.4689 8.40613 18.3417 8.49106 18.2017 8.54894C18.0617 8.60682 17.9117 8.63652 17.7602 8.63633Z" fill="white"/>
</svg>
