<svg width="25" height="25" viewBox="0 0 25 25" fill="none" xmlns="http://www.w3.org/2000/svg">
<path fill-rule="evenodd" clip-rule="evenodd" d="M9.61057 9.13933H13.4153V11.0345C13.9634 9.94454 15.369 8.96517 17.4803 8.96517C21.5279 8.96517 22.4888 11.1349 22.4888 15.1159V22.4888H18.3911V16.0225C18.3911 13.7555 17.843 12.477 16.4477 12.477C14.5125 12.477 13.7083 13.8548 13.7083 16.0215V22.4888H9.61057V9.13933ZM2.58393 22.3147H6.6817V8.96517H2.58393V22.3147ZM7.2687 4.61232C7.26885 4.95579 7.20073 5.29587 7.06831 5.61278C6.93588 5.92969 6.74178 6.21712 6.4973 6.45837C6.00188 6.95074 5.33129 7.22634 4.63281 7.22465C3.93557 7.22418 3.26653 6.94928 2.77038 6.45939C2.52678 6.21733 2.33334 5.92958 2.20114 5.61262C2.06895 5.29567 2.00059 4.95574 2 4.61232C2 3.91878 2.2766 3.25494 2.7714 2.76526C3.26712 2.27471 3.93644 1.99969 4.63384 2C5.33251 2 6.00249 2.27557 6.4973 2.76526C6.99108 3.25494 7.2687 3.91878 7.2687 4.61232Z" fill="white"/>
</svg>
