<svg width="25" height="25" viewBox="0 0 25 25" fill="none" xmlns="http://www.w3.org/2000/svg">
<path d="M22.5867 6.08159C21.7929 6.43335 20.9401 6.67103 20.0436 6.77846C20.9686 6.22495 21.6607 5.35379 21.9906 4.32754C21.1215 4.84376 20.1704 5.20712 19.1784 5.40183C18.5114 4.68963 17.6279 4.21756 16.6651 4.05894C15.7023 3.90031 14.714 4.06399 13.8538 4.52457C12.9935 4.98515 12.3094 5.71686 11.9076 6.6061C11.5058 7.49533 11.4088 8.49234 11.6317 9.44233C9.87074 9.35391 8.148 8.8962 6.57534 8.0989C5.00268 7.30159 3.61524 6.18252 2.50307 4.8143C2.12278 5.47028 1.90412 6.23085 1.90412 7.04085C1.9037 7.77004 2.08327 8.48805 2.42689 9.1312C2.77052 9.77434 3.26759 10.3227 3.87398 10.7277C3.17072 10.7053 2.48298 10.5153 1.86799 10.1734V10.2305C1.86792 11.2532 2.22169 12.2444 2.86926 13.036C3.51684 13.8276 4.41833 14.3707 5.42078 14.5733C4.76839 14.7499 4.08441 14.7759 3.4205 14.6493C3.70333 15.5293 4.25426 16.2988 4.99617 16.8502C5.73807 17.4015 6.63381 17.707 7.55797 17.7239C5.98915 18.9555 4.05166 19.6235 2.05719 19.6206C1.70388 19.6207 1.35088 19.6001 1 19.5588C3.02451 20.8605 5.38118 21.5513 7.78804 21.5486C15.9356 21.5486 20.3897 14.8005 20.3897 8.94797C20.3897 8.75782 20.3849 8.56578 20.3763 8.37564C21.2427 7.7491 21.9906 6.97325 22.5848 6.08444L22.5867 6.08159Z" fill="white"/>
</svg>
