<svg width="25" height="25" viewBox="0 0 25 25" fill="none" xmlns="http://www.w3.org/2000/svg">
<path d="M24.4726 6.8102C24.3303 6.26657 24.0517 5.7709 23.6647 5.37281C23.2777 4.97472 22.7958 4.68817 22.2673 4.54184C20.321 4 12.5 4 12.5 4C12.5 4 4.67899 4 2.73267 4.54184C2.20416 4.68817 1.72229 4.97472 1.33527 5.37281C0.948262 5.7709 0.669686 6.26657 0.527429 6.8102C0.164007 8.85198 -0.0123516 10.9243 0.000671781 13C-0.0123516 15.0757 0.164007 17.148 0.527429 19.1898C0.669686 19.7334 0.948262 20.2291 1.33527 20.6272C1.72229 21.0253 2.20416 21.3118 2.73267 21.4582C4.67899 22 12.5 22 12.5 22C12.5 22 20.321 22 22.2673 21.4582C22.7958 21.3118 23.2777 21.0253 23.6647 20.6272C24.0517 20.2291 24.3303 19.7334 24.4726 19.1898C24.836 17.148 25.0124 15.0757 24.9993 13C25.0124 10.9243 24.836 8.85198 24.4726 6.8102V6.8102ZM10.0001 16.8571V9.14286L16.4909 13L10.0001 16.8571Z" fill="white"/>
</svg>
